<svg version="1.1" id="Layer_1" xmlns="http://www.w3.org/2000/svg" xmlns:xlink="http://www.w3.org/1999/xlink" x="0px" y="0px"
	 width="100%" viewBox="0 0 1600 900" enable-background="new 0 0 1600 900" xml:space="preserve">
<path fill="#010101" opacity="1.000000" stroke="none" 
	d="
M1206.000000,901.000000 
	C804.000000,901.000000 402.500000,901.000000 1.000000,901.000000 
	C1.000000,601.000000 1.000000,301.000000 1.000000,1.000000 
	C534.333313,1.000000 1067.666626,1.000000 1601.000000,1.000000 
	C1601.000000,301.000000 1601.000000,601.000000 1601.000000,901.000000 
	C1469.500000,901.000000 1338.000000,901.000000 1206.000000,901.000000 
M1557.953247,337.500000 
	C1557.952759,305.845642 1557.979980,274.191254 1557.937866,242.536957 
	C1557.921875,230.463654 1556.083252,218.688385 1552.094604,207.238007 
	C1539.998169,172.513565 1505.940918,146.832977 1469.345093,145.847839 
	C1446.040405,145.220474 1422.702271,145.397812 1399.386963,145.742737 
	C1381.195068,146.011871 1364.789307,152.545166 1350.305664,163.165314 
	C1323.449341,182.857895 1310.770386,209.742432 1310.843994,243.041107 
	C1311.011353,318.843842 1310.892578,394.647186 1310.911011,470.450287 
	C1310.911743,473.779175 1311.040405,477.112823 1311.243164,480.436096 
	C1314.272583,530.110229 1355.377563,567.310791 1400.902588,568.400208 
	C1421.881470,568.902222 1442.881958,568.825806 1463.868286,568.605469 
	C1481.866699,568.416443 1498.936157,563.929382 1514.013550,554.015686 
	C1543.926758,534.347168 1558.042725,506.094757 1557.973633,470.447327 
	C1557.888184,426.465027 1557.953247,382.482452 1557.953247,337.500000 
M84.499908,567.751465 
	C102.662529,567.751465 120.826500,567.615234 138.987305,567.796631 
	C152.321564,567.929810 165.174301,565.262207 177.646149,561.074829 
	C203.791595,552.296509 225.201691,536.588623 241.540939,514.439453 
	C263.782471,484.289246 272.160828,450.439362 265.757721,413.456726 
	C260.784485,384.732513 247.551239,360.136993 226.025177,340.243774 
	C223.718231,338.111786 222.438980,336.617249 224.707550,333.312866 
	C243.487961,305.957550 250.238358,275.973999 244.138687,243.162704 
	C237.629242,208.147110 219.192474,181.253708 189.306808,162.200699 
	C167.862793,148.529495 143.816925,143.941940 118.858002,143.576538 
	C95.368370,143.232651 71.868561,143.625168 48.376137,143.396027 
	C43.750175,143.350922 42.541317,144.656998 42.545387,149.259445 
	C42.666977,286.728027 42.642296,424.196747 42.659264,561.665466 
	C42.659500,563.578064 42.896603,565.490662 43.046188,567.751465 
	C56.893276,567.751465 70.196587,567.751465 84.499908,567.751465 
M508.678192,166.845215 
	C507.477600,160.805710 505.886780,154.809662 505.207642,148.712082 
	C504.719421,144.328552 502.905884,143.313217 498.820435,143.419449 
	C482.351654,143.847702 465.875153,144.146484 449.401245,144.160339 
	C435.092865,144.172379 420.782623,143.797470 406.476685,143.451599 
	C403.184875,143.372025 401.586029,144.126541 400.686554,147.785126 
	C390.404358,189.609467 379.888794,231.376480 369.415344,273.153717 
	C358.738373,315.742645 348.009155,358.318451 337.357544,400.913666 
	C325.658295,447.698334 314.017303,494.497589 302.361115,541.293030 
	C300.210114,549.928406 298.107544,558.575745 295.935181,567.410645 
	C297.235870,567.577759 297.883850,567.733582 298.531921,567.733948 
	C324.357056,567.749146 350.182343,567.708801 376.007111,567.810059 
	C378.942780,567.821533 379.964081,566.708984 380.633301,563.971191 
	C386.792145,538.774475 393.212311,513.641052 399.253143,488.416595 
	C400.187103,484.516754 401.700836,483.427643 405.553650,483.451721 
	C431.044556,483.610962 456.536957,483.529510 482.028870,483.545654 
	C483.626434,483.546661 485.223877,483.710327 486.826080,483.798584 
	C491.883759,509.972076 496.995911,535.589417 501.662659,561.287659 
	C502.592560,566.408325 504.404449,567.952454 509.614044,567.884460 
	C532.769409,567.582336 555.930969,567.753296 579.090271,567.753174 
	C580.876465,567.753174 582.662659,567.753113 585.017029,567.753113 
	C584.738647,565.391968 584.641479,563.601013 584.303894,561.856506 
	C581.554321,547.646545 578.712280,533.454407 575.988281,519.239624 
	C568.691711,481.163818 561.453064,443.076904 554.165894,404.999268 
	C548.567627,375.746918 542.911072,346.505646 537.315918,317.252686 
	C531.595459,287.344818 525.916992,257.428894 520.222534,227.516037 
	C516.426270,207.574188 512.634216,187.631546 508.678192,166.845215 
M613.196594,558.410950 
	C613.196655,567.754883 613.196655,567.754883 622.341675,567.754883 
	C691.998474,567.754883 761.655273,567.754883 831.312073,567.754883 
	C833.393372,567.754883 835.474731,567.754883 837.512329,567.754883 
	C837.512329,540.120239 837.512329,513.386169 837.512329,486.072205 
	C789.753479,486.072205 742.351013,486.072205 694.296265,486.072205 
	C694.296265,371.613770 694.296265,257.736664 694.296265,143.495834 
	C691.995972,143.495834 690.351929,143.495850 688.707886,143.495850 
	C665.711121,143.495834 642.714355,143.494476 619.717590,143.496674 
	C613.200256,143.497299 613.197021,143.502045 613.197021,149.989624 
	C613.196350,285.803741 613.196594,421.617889 613.196594,558.410950 
M946.884827,145.105362 
	C945.125671,144.569199 943.368652,143.574188 941.607117,143.566315 
	C918.276001,143.462036 894.942749,143.634598 871.613953,143.380402 
	C866.908020,143.329132 865.818054,144.715836 865.821838,149.250763 
	C865.936951,286.740387 865.914307,424.230133 865.930237,561.719849 
	C865.930481,563.633850 866.148132,565.547913 866.281921,567.752930 
	C868.175781,567.752930 869.487122,567.752930 870.798401,567.752930 
	C894.463318,567.753357 918.129028,567.653015 941.792297,567.847839 
	C946.013977,567.882629 947.112915,566.575867 947.109985,562.477295 
	C947.010071,423.654480 947.017883,284.831573 946.884827,145.105362 
M1020.500122,155.636749 
	C1010.461304,155.636749 1000.422485,155.636749 989.733276,155.636749 
	C990.667236,158.000046 991.070923,159.254150 991.640015,160.428070 
	C1011.010864,200.387695 1030.416016,240.330643 1049.777344,280.294830 
	C1079.366455,341.370361 1108.912476,402.466766 1138.537964,463.524658 
	C1140.192749,466.935211 1140.378662,469.945862 1138.649658,473.427185 
	C1125.921021,499.057159 1113.260986,524.721924 1100.762573,550.464722 
	C1099.290527,553.496887 1097.617920,554.491577 1094.313599,554.476257 
	C1066.317383,554.346069 1038.320435,554.408020 1010.323608,554.385559 
	C1008.779480,554.384338 1007.235413,554.145264 1004.963989,553.956360 
	C1006.049866,551.563782 1006.735535,549.922852 1007.524902,548.333435 
	C1021.140747,520.917969 1034.736450,493.492371 1048.404907,466.103088 
	C1060.363403,442.140167 1071.850952,417.915802 1084.685059,394.429138 
	C1089.841797,384.992279 1086.125488,378.413330 1081.971191,369.726746 
	C1049.669067,436.420502 1017.837463,502.142670 985.836914,568.213867 
	C987.280579,568.581482 987.889038,568.871704 988.497620,568.872070 
	C1026.659912,568.897644 1064.822266,568.934998 1102.983765,568.771240 
	C1104.477661,568.764771 1106.632080,567.152405 1107.354126,565.721069 
	C1122.856934,534.984375 1138.245117,504.189331 1153.459839,473.309174 
	C1154.386108,471.429291 1154.508667,468.360260 1153.624756,466.500549 
	C1140.131348,438.108673 1126.405273,409.827393 1112.738525,381.517914 
	C1096.900391,348.710419 1081.062744,315.902649 1065.232910,283.091156 
	C1050.416138,252.379578 1035.599731,221.667831 1020.805603,190.945267 
	C1017.236816,183.534012 1013.757080,176.079865 1010.031860,168.213715 
	C1011.632019,168.008194 1012.418091,167.819458 1013.204224,167.819000 
	C1041.201050,167.802185 1069.198120,167.869003 1097.194092,167.716461 
	C1100.632202,167.697723 1101.800049,169.528122 1103.007568,172.032639 
	C1108.282715,182.973328 1113.600342,193.893585 1118.936279,204.804810 
	C1143.488647,255.010971 1168.046387,305.214508 1192.620361,355.410095 
	C1195.373291,361.033325 1198.240967,366.600342 1201.685303,373.445221 
	C1237.183716,299.927429 1272.107666,227.599350 1307.477051,154.348740 
	C1299.879517,154.348740 1293.428345,154.348846 1286.977173,154.348709 
	C1254.814209,154.348068 1222.651001,154.303772 1190.488770,154.454575 
	C1188.552368,154.463669 1185.573242,155.503601 1184.850830,156.949203 
	C1176.373535,173.911163 1168.206177,191.028702 1160.063477,208.155792 
	C1159.408203,209.534241 1158.865601,211.596039 1159.425049,212.807037 
	C1161.278076,216.817780 1163.659424,220.584335 1166.166260,225.026260 
	C1167.218994,223.293732 1167.885620,222.378403 1168.368530,221.374634 
	C1176.299683,204.888168 1184.281982,188.425354 1192.052856,171.863449 
	C1193.446411,168.893051 1195.058472,167.705780 1198.426880,167.722565 
	C1225.923096,167.859726 1253.420166,167.795303 1280.916992,167.818253 
	C1282.288330,167.819397 1283.659424,168.061890 1285.666016,168.252289 
	C1257.442871,226.961700 1229.548706,284.986481 1201.218750,343.918091 
	C1200.024658,341.925079 1199.470825,341.149109 1199.065186,340.302246 
	C1185.054688,311.048096 1171.023682,281.803680 1157.069214,252.522858 
	C1142.470093,221.889771 1127.903687,191.240952 1113.447021,160.540588 
	C1111.745850,156.927933 1109.647583,155.501373 1105.489746,155.531525 
	C1077.494385,155.734558 1049.496948,155.637283 1020.500122,155.636749 
M534.537476,649.500244 
	C534.537476,641.888977 534.537476,634.277710 534.537476,626.554565 
	C530.718933,626.554565 527.641418,626.554565 523.910767,626.554565 
	C523.910767,650.858093 523.910767,674.855164 523.910767,698.852234 
	C523.555298,698.945984 523.199768,699.039673 522.844299,699.133423 
	C504.642090,673.296265 486.439911,647.459106 468.237732,621.621948 
	C467.918915,621.768127 467.600067,621.914246 467.281250,622.060364 
	C467.281250,657.230164 467.281250,692.399963 467.281250,727.664795 
	C470.793243,727.664795 474.021393,727.664795 477.897583,727.664795 
	C477.897583,703.475952 477.897583,679.651428 477.897583,655.826904 
	C478.281189,655.713745 478.664764,655.600586 479.048370,655.487427 
	C497.155640,681.191101 515.262939,706.894775 533.370178,732.598450 
	C533.759277,732.481323 534.148315,732.364258 534.537354,732.247131 
	C534.537354,704.998230 534.537354,677.749268 534.537476,649.500244 
M1125.276489,668.688599 
	C1131.960327,646.463867 1120.415161,628.790039 1097.210693,626.655518 
	C1087.464600,625.758972 1077.575684,626.525879 1067.766113,626.155334 
	C1063.524780,625.995178 1062.451538,627.436707 1062.472046,631.529846 
	C1062.625488,662.168823 1062.551636,692.808960 1062.568726,723.448730 
	C1062.569580,724.875671 1062.758667,726.302429 1062.864258,727.786926 
	C1066.427979,727.786926 1069.546265,727.786926 1073.244873,727.786926 
	C1073.244873,714.494507 1073.244873,701.434448 1073.244873,688.476624 
	C1084.310913,686.871460 1084.324341,686.861450 1090.373657,694.966309 
	C1097.736694,704.831604 1105.038086,714.743469 1112.464966,724.560425 
	C1113.498291,725.926392 1114.998779,727.671265 1116.451050,727.846069 
	C1120.284058,728.307617 1124.209229,728.002258 1129.104858,728.002258 
	C1123.411255,720.662292 1118.456787,714.253845 1113.478638,707.863831 
	C1108.515259,701.492859 1103.528198,695.140442 1098.014404,688.093506 
	C1110.715088,686.129578 1119.643921,680.215881 1125.276489,668.688599 
M1514.971680,646.958191 
	C1517.418945,646.958191 1519.866211,646.958191 1522.804565,646.958191 
	C1521.513306,639.434937 1517.598022,634.505920 1512.102051,630.769714 
	C1499.434326,622.158142 1476.528442,622.943420 1464.307007,632.266602 
	C1450.860474,642.524414 1450.758179,662.234985 1464.548950,671.439331 
	C1469.565308,674.787354 1475.529785,676.852539 1481.261230,678.960083 
	C1490.285034,682.278320 1499.829468,684.376221 1508.508911,688.385925 
	C1519.061279,693.260925 1520.472412,705.919861 1511.801880,713.622314 
	C1503.796753,720.733582 1493.847412,720.975464 1483.914795,719.783325 
	C1475.102539,718.725708 1467.311035,715.801819 1464.537720,705.973816 
	C1464.333008,705.247986 1463.187256,704.334229 1462.436768,704.293945 
	C1459.056763,704.112549 1455.661499,704.214783 1451.980957,704.214783 
	C1453.635620,713.254333 1457.659546,720.030945 1464.914307,723.789795 
	C1481.324707,732.292236 1498.228882,732.649841 1514.666138,723.883484 
	C1524.146118,718.827515 1528.426636,710.159973 1528.067139,699.407104 
	C1527.709351,688.705872 1521.841919,681.771240 1512.378906,677.658691 
	C1508.124878,675.809998 1503.657104,674.447083 1499.267212,672.918701 
	C1490.660889,669.922058 1481.859619,667.391663 1473.488525,663.844055 
	C1467.625732,661.359436 1465.140503,655.978088 1465.556641,649.507996 
	C1465.994385,642.700195 1469.960938,638.353394 1475.974609,636.151306 
	C1484.712036,632.951843 1493.782593,632.959595 1502.344727,636.507385 
	C1505.587891,637.851135 1507.909912,641.406067 1510.670044,643.933228 
	C1511.799805,644.967651 1512.977783,645.949402 1514.971680,646.958191 
M1269.723511,643.500122 
	C1269.723511,641.219788 1269.723511,638.939514 1269.723511,636.177368 
	C1286.638672,636.177368 1302.902222,636.177368 1319.257446,636.177368 
	C1319.257446,632.633667 1319.257446,629.596680 1319.257446,626.222778 
	C1300.016602,626.222778 1281.206909,626.254944 1262.397583,626.197571 
	C1258.272705,626.184998 1259.105713,629.071777 1259.103882,631.429810 
	C1259.080566,662.093018 1259.085449,692.756165 1259.102905,723.419373 
	C1259.103638,724.848572 1259.288940,726.277710 1259.394775,727.802002 
	C1279.616211,727.802002 1299.379150,727.802002 1319.247314,727.802002 
	C1319.247314,724.504211 1319.247314,721.471558 1319.247314,718.116577 
	C1317.153931,718.116577 1315.502563,718.116638 1313.851196,718.116577 
	C1301.019287,718.116272 1288.184326,717.953186 1275.357422,718.207581 
	C1271.088501,718.292236 1269.418457,717.270813 1269.621948,712.690247 
	C1269.983887,704.540527 1269.704346,696.363220 1269.738403,688.197571 
	C1269.746338,686.289612 1269.934570,684.382446 1270.067627,681.971008 
	C1286.390137,681.971008 1302.125977,681.971008 1317.823730,681.971008 
	C1317.823730,678.490051 1317.823730,675.561584 1317.823730,672.300903 
	C1315.928955,672.215698 1314.304932,672.081543 1312.680542,672.079346 
	C1300.015259,672.061890 1287.347168,671.916199 1274.686523,672.159180 
	C1270.636353,672.236816 1269.501953,670.905273 1269.644043,667.000549 
	C1269.916748,659.511292 1269.723389,652.005127 1269.723511,643.500122 
M864.876648,722.591125 
	C877.434998,730.561523 890.949280,731.390259 904.613281,726.726379 
	C919.707458,721.574463 926.817383,710.423096 926.921448,693.185730 
	C927.046143,672.537598 926.961853,651.888184 926.940918,631.239319 
	C926.939331,629.659424 926.722351,628.079834 926.613647,626.609497 
	C922.934204,626.609497 919.877136,626.609497 916.332703,626.609497 
	C916.332703,628.798035 916.332703,630.597900 916.332642,632.397827 
	C916.331787,652.547119 916.360535,672.696472 916.320740,692.845703 
	C916.289307,708.747437 908.973022,716.905823 893.310303,718.647644 
	C872.712097,720.938354 861.689880,711.164673 861.685852,690.598022 
	C861.681885,670.448730 861.577209,650.298401 861.763062,630.150818 
	C861.806580,625.436096 858.915955,626.291992 856.163208,626.206116 
	C853.383789,626.119446 850.970093,625.832947 851.011414,630.071838 
	C851.230591,652.549194 851.063416,675.030884 851.349792,697.506958 
	C851.480225,707.741211 855.956604,716.064209 864.876648,722.591125 
M289.532166,636.125488 
	C302.639801,636.125488 315.747437,636.125488 328.738007,636.125488 
	C330.384766,626.517456 330.171173,626.240173 321.688995,626.239563 
	C306.027985,626.238403 290.367004,626.239075 274.705994,626.239014 
	C272.937225,626.239014 271.168427,626.239014 269.213623,626.239014 
	C269.213623,660.509888 269.213623,694.058167 269.213623,727.783203 
	C289.292419,727.783203 309.045013,727.783203 328.748138,727.783203 
	C330.528412,718.538940 330.213104,718.140747 321.347717,718.140320 
	C309.018860,718.139709 296.686218,717.968811 284.363251,718.237854 
	C280.294739,718.326660 279.231476,717.010803 279.394623,713.139160 
	C279.682037,706.320435 279.474976,699.480896 279.474945,692.650024 
	C279.474945,689.236450 279.474945,685.822876 279.474945,681.867920 
	C296.010437,681.867920 311.734009,681.867920 327.369507,681.867920 
	C328.562897,672.091431 328.562897,672.091431 319.570404,672.091553 
	C307.907959,672.091675 296.245514,672.091797 284.583069,672.091858 
	C283.006927,672.091919 281.430786,672.091858 279.812927,672.091858 
	C279.812927,659.698181 279.812927,648.126587 279.812927,636.125488 
	C282.944824,636.125488 285.743195,636.125488 289.532166,636.125488 
M54.023243,638.659912 
	C67.465759,670.051208 80.908279,701.442444 94.956871,734.249023 
	C110.623795,697.556458 125.672363,662.312134 140.837555,626.794617 
	C130.055511,625.429260 130.049271,625.426636 126.482079,633.847656 
	C117.211723,655.732178 107.959526,677.624451 98.663780,699.498169 
	C97.620445,701.953247 96.344269,704.309387 94.943291,707.190125 
	C94.090996,705.684875 93.607010,704.994995 93.284424,704.236450 
	C83.202812,680.530212 73.123306,656.823120 63.076523,633.102112 
	C59.804775,625.377319 59.031609,624.973389 49.176708,626.998657 
	C50.723854,630.726685 52.224354,634.342346 54.023243,638.659912 
M699.085632,695.500000 
	C699.085632,675.770752 699.085632,656.041504 699.085632,635.693115 
	C707.775635,635.693115 715.668945,635.693115 723.497559,635.693115 
	C723.497559,632.142029 723.497559,629.236694 723.497559,626.266357 
	C703.566345,626.266357 684.011963,626.266357 664.254944,626.266357 
	C664.254944,629.520264 664.254944,632.428772 664.254944,636.040894 
	C672.457764,636.040894 680.330566,636.040894 688.676514,636.040894 
	C688.676514,666.978394 688.676514,697.213501 688.676514,727.572754 
	C692.280212,727.572754 695.367737,727.572754 699.085632,727.572754 
	C699.085632,717.041016 699.085632,706.770508 699.085632,695.500000 
z"/>
<path fill="#FDFDFD" opacity="1.000000" stroke="none" 
	d="
M1557.953247,338.000000 
	C1557.953247,382.482452 1557.888184,426.465027 1557.973633,470.447327 
	C1558.042725,506.094757 1543.926758,534.347168 1514.013550,554.015686 
	C1498.936157,563.929382 1481.866699,568.416443 1463.868286,568.605469 
	C1442.881958,568.825806 1421.881470,568.902222 1400.902588,568.400208 
	C1355.377563,567.310791 1314.272583,530.110229 1311.243164,480.436096 
	C1311.040405,477.112823 1310.911743,473.779175 1310.911011,470.450287 
	C1310.892578,394.647186 1311.011353,318.843842 1310.843994,243.041107 
	C1310.770386,209.742432 1323.449341,182.857895 1350.305664,163.165314 
	C1364.789307,152.545166 1381.195068,146.011871 1399.386963,145.742737 
	C1422.702271,145.397812 1446.040405,145.220474 1469.345093,145.847839 
	C1505.940918,146.832977 1539.998169,172.513565 1552.094604,207.238007 
	C1556.083252,218.688385 1557.921875,230.463654 1557.937866,242.536957 
	C1557.979980,274.191254 1557.952759,305.845642 1557.953247,338.000000 
M1392.153809,460.497894 
	C1392.156006,464.830017 1392.103882,469.163025 1392.171509,473.494110 
	C1392.313599,482.604767 1396.992310,487.194763 1406.195801,487.208862 
	C1424.858032,487.237457 1443.520142,487.232483 1462.182373,487.210602 
	C1472.357910,487.198700 1477.353149,482.411652 1477.358521,472.320068 
	C1477.399414,395.505005 1477.402100,318.689972 1477.357788,241.874939 
	C1477.351440,230.860138 1472.046143,225.757599 1460.994995,225.745102 
	C1443.665771,225.725494 1426.336670,225.732605 1409.007446,225.743011 
	C1396.488159,225.750534 1392.156250,230.070541 1392.155518,242.550385 
	C1392.151733,314.866516 1392.153809,387.182617 1392.153809,460.497894 
z"/>
<path fill="#FEFEFE" opacity="1.000000" stroke="none" 
	d="
M83.999908,567.751465 
	C70.196587,567.751465 56.893276,567.751465 43.046188,567.751465 
	C42.896603,565.490662 42.659500,563.578064 42.659264,561.665466 
	C42.642296,424.196747 42.666977,286.728027 42.545387,149.259445 
	C42.541317,144.656998 43.750175,143.350922 48.376137,143.396027 
	C71.868561,143.625168 95.368370,143.232651 118.858002,143.576538 
	C143.816925,143.941940 167.862793,148.529495 189.306808,162.200699 
	C219.192474,181.253708 237.629242,208.147110 244.138687,243.162704 
	C250.238358,275.973999 243.487961,305.957550 224.707550,333.312866 
	C222.438980,336.617249 223.718231,338.111786 226.025177,340.243774 
	C247.551239,360.136993 260.784485,384.732513 265.757721,413.456726 
	C272.160828,450.439362 263.782471,484.289246 241.540939,514.439453 
	C225.201691,536.588623 203.791595,552.296509 177.646149,561.074829 
	C165.174301,565.262207 152.321564,567.929810 138.987305,567.796631 
	C120.826500,567.615234 102.662529,567.751465 83.999908,567.751465 
M124.319794,404.500549 
	C124.319809,430.472534 124.382561,456.444885 124.248055,482.416168 
	C124.229202,486.056305 125.181564,487.658417 128.998672,487.310425 
	C133.301270,486.918182 137.654587,487.045868 141.947281,486.586945 
	C170.378891,483.547333 191.395798,454.995941 185.773819,427.034546 
	C180.303452,399.827179 157.350159,382.649567 127.315498,385.135864 
	C126.232315,385.225555 124.541496,387.292725 124.459709,388.526184 
	C124.129967,393.498993 124.321091,398.506378 124.319794,404.500549 
M153.506256,293.009460 
	C167.183258,279.532990 169.732117,260.422974 160.107147,244.164597 
	C152.861008,231.924576 135.028412,222.984192 124.749832,226.328598 
	C124.749832,252.125519 124.749832,277.839203 124.749832,303.757111 
	C135.826492,303.985718 145.022690,300.440125 153.506256,293.009460 
z"/>
<path fill="#FDFDFD" opacity="1.000000" stroke="none" 
	d="
M508.759216,167.267242 
	C512.634216,187.631546 516.426270,207.574188 520.222534,227.516037 
	C525.916992,257.428894 531.595459,287.344818 537.315918,317.252686 
	C542.911072,346.505646 548.567627,375.746918 554.165894,404.999268 
	C561.453064,443.076904 568.691711,481.163818 575.988281,519.239624 
	C578.712280,533.454407 581.554321,547.646545 584.303894,561.856506 
	C584.641479,563.601013 584.738647,565.391968 585.017029,567.753113 
	C582.662659,567.753113 580.876465,567.753174 579.090271,567.753174 
	C555.930969,567.753296 532.769409,567.582336 509.614044,567.884460 
	C504.404449,567.952454 502.592560,566.408325 501.662659,561.287659 
	C496.995911,535.589417 491.883759,509.972076 486.826080,483.798584 
	C485.223877,483.710327 483.626434,483.546661 482.028870,483.545654 
	C456.536957,483.529510 431.044556,483.610962 405.553650,483.451721 
	C401.700836,483.427643 400.187103,484.516754 399.253143,488.416595 
	C393.212311,513.641052 386.792145,538.774475 380.633301,563.971191 
	C379.964081,566.708984 378.942780,567.821533 376.007111,567.810059 
	C350.182343,567.708801 324.357056,567.749146 298.531921,567.733948 
	C297.883850,567.733582 297.235870,567.577759 295.935181,567.410645 
	C298.107544,558.575745 300.210114,549.928406 302.361115,541.293030 
	C314.017303,494.497589 325.658295,447.698334 337.357544,400.913666 
	C348.009155,358.318451 358.738373,315.742645 369.415344,273.153717 
	C379.888794,231.376480 390.404358,189.609467 400.686554,147.785126 
	C401.586029,144.126541 403.184875,143.372025 406.476685,143.451599 
	C420.782623,143.797470 435.092865,144.172379 449.401245,144.160339 
	C465.875153,144.146484 482.351654,143.847702 498.820435,143.419449 
	C502.905884,143.313217 504.719421,144.328552 505.207642,148.712082 
	C505.886780,154.809662 507.477600,160.805710 508.759216,167.267242 
M446.960388,296.379486 
	C438.244476,331.446075 429.528564,366.512695 420.718811,401.956757 
	C437.779602,401.956757 454.121307,401.956757 470.998352,401.956757 
	C463.844360,364.406952 456.778168,327.318085 449.712006,290.229218 
	C449.393646,290.197144 449.075256,290.165070 448.756897,290.132996 
	C448.203674,291.947937 447.650482,293.762878 446.960388,296.379486 
z"/>
<path fill="#FDFDFD" opacity="1.000000" stroke="none" 
	d="
M613.196594,557.921509 
	C613.196594,421.617889 613.196350,285.803741 613.197021,149.989624 
	C613.197021,143.502045 613.200256,143.497299 619.717590,143.496674 
	C642.714355,143.494476 665.711121,143.495834 688.707886,143.495850 
	C690.351929,143.495850 691.995972,143.495834 694.296265,143.495834 
	C694.296265,257.736664 694.296265,371.613770 694.296265,486.072205 
	C742.351013,486.072205 789.753479,486.072205 837.512329,486.072205 
	C837.512329,513.386169 837.512329,540.120239 837.512329,567.754883 
	C835.474731,567.754883 833.393372,567.754883 831.312073,567.754883 
	C761.655273,567.754883 691.998474,567.754883 622.341675,567.754883 
	C613.196655,567.754883 613.196655,567.754883 613.196594,557.921509 
z"/>
<path fill="#FDFDFD" opacity="1.000000" stroke="none" 
	d="
M946.947510,145.557037 
	C947.017883,284.831573 947.010071,423.654480 947.109985,562.477295 
	C947.112915,566.575867 946.013977,567.882629 941.792297,567.847839 
	C918.129028,567.653015 894.463318,567.753357 870.798401,567.752930 
	C869.487122,567.752930 868.175781,567.752930 866.281921,567.752930 
	C866.148132,565.547913 865.930481,563.633850 865.930237,561.719849 
	C865.914307,424.230133 865.936951,286.740387 865.821838,149.250763 
	C865.818054,144.715836 866.908020,143.329132 871.613953,143.380402 
	C894.942749,143.634598 918.276001,143.462036 941.607117,143.566315 
	C943.368652,143.574188 945.125671,144.569199 946.947510,145.557037 
z"/>
<path fill="#F0D100" opacity="1.000000" stroke="none" 
	d="
M1021.000122,155.637009 
	C1049.496948,155.637283 1077.494385,155.734558 1105.489746,155.531525 
	C1109.647583,155.501373 1111.745850,156.927933 1113.447021,160.540588 
	C1127.903687,191.240952 1142.470093,221.889771 1157.069214,252.522858 
	C1171.023682,281.803680 1185.054688,311.048096 1199.065186,340.302246 
	C1199.470825,341.149109 1200.024658,341.925079 1201.218750,343.918091 
	C1229.548706,284.986481 1257.442871,226.961700 1285.666016,168.252289 
	C1283.659424,168.061890 1282.288330,167.819397 1280.916992,167.818253 
	C1253.420166,167.795303 1225.923096,167.859726 1198.426880,167.722565 
	C1195.058472,167.705780 1193.446411,168.893051 1192.052856,171.863449 
	C1184.281982,188.425354 1176.299683,204.888168 1168.368530,221.374634 
	C1167.885620,222.378403 1167.218994,223.293732 1166.166260,225.026260 
	C1163.659424,220.584335 1161.278076,216.817780 1159.425049,212.807037 
	C1158.865601,211.596039 1159.408203,209.534241 1160.063477,208.155792 
	C1168.206177,191.028702 1176.373535,173.911163 1184.850830,156.949203 
	C1185.573242,155.503601 1188.552368,154.463669 1190.488770,154.454575 
	C1222.651001,154.303772 1254.814209,154.348068 1286.977173,154.348709 
	C1293.428345,154.348846 1299.879517,154.348740 1307.477051,154.348740 
	C1272.107666,227.599350 1237.183716,299.927429 1201.685303,373.445221 
	C1198.240967,366.600342 1195.373291,361.033325 1192.620361,355.410095 
	C1168.046387,305.214508 1143.488647,255.010971 1118.936279,204.804810 
	C1113.600342,193.893585 1108.282715,182.973328 1103.007568,172.032639 
	C1101.800049,169.528122 1100.632202,167.697723 1097.194092,167.716461 
	C1069.198120,167.869003 1041.201050,167.802185 1013.204224,167.819000 
	C1012.418091,167.819458 1011.632019,168.008194 1010.031860,168.213715 
	C1013.757080,176.079865 1017.236816,183.534012 1020.805603,190.945267 
	C1035.599731,221.667831 1050.416138,252.379578 1065.232910,283.091156 
	C1081.062744,315.902649 1096.900391,348.710419 1112.738525,381.517914 
	C1126.405273,409.827393 1140.131348,438.108673 1153.624756,466.500549 
	C1154.508667,468.360260 1154.386108,471.429291 1153.459839,473.309174 
	C1138.245117,504.189331 1122.856934,534.984375 1107.354126,565.721069 
	C1106.632080,567.152405 1104.477661,568.764771 1102.983765,568.771240 
	C1064.822266,568.934998 1026.659912,568.897644 988.497620,568.872070 
	C987.889038,568.871704 987.280579,568.581482 985.836914,568.213867 
	C1017.837463,502.142670 1049.669067,436.420502 1081.971191,369.726746 
	C1086.125488,378.413330 1089.841797,384.992279 1084.685059,394.429138 
	C1071.850952,417.915802 1060.363403,442.140167 1048.404907,466.103088 
	C1034.736450,493.492371 1021.140747,520.917969 1007.524902,548.333435 
	C1006.735535,549.922852 1006.049866,551.563782 1004.963989,553.956360 
	C1007.235413,554.145264 1008.779480,554.384338 1010.323608,554.385559 
	C1038.320435,554.408020 1066.317383,554.346069 1094.313599,554.476257 
	C1097.617920,554.491577 1099.290527,553.496887 1100.762573,550.464722 
	C1113.260986,524.721924 1125.921021,499.057159 1138.649658,473.427185 
	C1140.378662,469.945862 1140.192749,466.935211 1138.537964,463.524658 
	C1108.912476,402.466766 1079.366455,341.370361 1049.777344,280.294830 
	C1030.416016,240.330643 1011.010864,200.387695 991.640015,160.428070 
	C991.070923,159.254150 990.667236,158.000046 989.733276,155.636749 
	C1000.422485,155.636749 1010.461304,155.636749 1021.000122,155.637009 
z"/>
<path fill="#F0F0F0" opacity="1.000000" stroke="none" 
	d="
M534.537415,650.000244 
	C534.537354,677.749268 534.537354,704.998230 534.537354,732.247131 
	C534.148315,732.364258 533.759277,732.481323 533.370178,732.598450 
	C515.262939,706.894775 497.155640,681.191101 479.048370,655.487427 
	C478.664764,655.600586 478.281189,655.713745 477.897583,655.826904 
	C477.897583,679.651428 477.897583,703.475952 477.897583,727.664795 
	C474.021393,727.664795 470.793243,727.664795 467.281250,727.664795 
	C467.281250,692.399963 467.281250,657.230164 467.281250,622.060364 
	C467.600067,621.914246 467.918915,621.768127 468.237732,621.621948 
	C486.439911,647.459106 504.642090,673.296265 522.844299,699.133423 
	C523.199768,699.039673 523.555298,698.945984 523.910767,698.852234 
	C523.910767,674.855164 523.910767,650.858093 523.910767,626.554565 
	C527.641418,626.554565 530.718933,626.554565 534.537476,626.554565 
	C534.537476,634.277710 534.537476,641.888977 534.537415,650.000244 
z"/>
<path fill="#F1F1F1" opacity="1.000000" stroke="none" 
	d="
M1125.128662,669.044983 
	C1119.643921,680.215881 1110.715088,686.129578 1098.014404,688.093506 
	C1103.528198,695.140442 1108.515259,701.492859 1113.478638,707.863831 
	C1118.456787,714.253845 1123.411255,720.662292 1129.104858,728.002258 
	C1124.209229,728.002258 1120.284058,728.307617 1116.451050,727.846069 
	C1114.998779,727.671265 1113.498291,725.926392 1112.464966,724.560425 
	C1105.038086,714.743469 1097.736694,704.831604 1090.373657,694.966309 
	C1084.324341,686.861450 1084.310913,686.871460 1073.244873,688.476624 
	C1073.244873,701.434448 1073.244873,714.494507 1073.244873,727.786926 
	C1069.546265,727.786926 1066.427979,727.786926 1062.864258,727.786926 
	C1062.758667,726.302429 1062.569580,724.875671 1062.568726,723.448730 
	C1062.551636,692.808960 1062.625488,662.168823 1062.472046,631.529846 
	C1062.451538,627.436707 1063.524780,625.995178 1067.766113,626.155334 
	C1077.575684,626.525879 1087.464600,625.758972 1097.210693,626.655518 
	C1120.415161,628.790039 1131.960327,646.463867 1125.128662,669.044983 
M1111.152588,671.643738 
	C1117.581421,664.383545 1118.533203,656.101318 1114.806763,647.496155 
	C1111.101074,638.939087 1103.606689,636.265991 1094.826660,636.289124 
	C1088.841064,636.304932 1082.852539,636.395386 1076.870972,636.240234 
	C1074.060425,636.167358 1073.016113,637.178528 1073.073120,639.981750 
	C1073.198242,646.131104 1073.108398,652.284790 1073.107544,658.436707 
	C1073.106689,664.688354 1073.107300,670.940002 1073.107300,677.043518 
	C1074.268311,677.391602 1074.730957,677.649231 1075.194946,677.651550 
	C1082.177856,677.685974 1089.161011,677.673096 1096.144043,677.699951 
	C1101.696655,677.721252 1106.601685,676.087219 1111.152588,671.643738 
z"/>
<path fill="#EEEEEE" opacity="1.000000" stroke="none" 
	d="
M1514.552734,646.956665 
	C1512.977783,645.949402 1511.799805,644.967651 1510.670044,643.933228 
	C1507.909912,641.406067 1505.587891,637.851135 1502.344727,636.507385 
	C1493.782593,632.959595 1484.712036,632.951843 1475.974609,636.151306 
	C1469.960938,638.353394 1465.994385,642.700195 1465.556641,649.507996 
	C1465.140503,655.978088 1467.625732,661.359436 1473.488525,663.844055 
	C1481.859619,667.391663 1490.660889,669.922058 1499.267212,672.918701 
	C1503.657104,674.447083 1508.124878,675.809998 1512.378906,677.658691 
	C1521.841919,681.771240 1527.709351,688.705872 1528.067139,699.407104 
	C1528.426636,710.159973 1524.146118,718.827515 1514.666138,723.883484 
	C1498.228882,732.649841 1481.324707,732.292236 1464.914307,723.789795 
	C1457.659546,720.030945 1453.635620,713.254333 1451.980957,704.214783 
	C1455.661499,704.214783 1459.056763,704.112549 1462.436768,704.293945 
	C1463.187256,704.334229 1464.333008,705.247986 1464.537720,705.973816 
	C1467.311035,715.801819 1475.102539,718.725708 1483.914795,719.783325 
	C1493.847412,720.975464 1503.796753,720.733582 1511.801880,713.622314 
	C1520.472412,705.919861 1519.061279,693.260925 1508.508911,688.385925 
	C1499.829468,684.376221 1490.285034,682.278320 1481.261230,678.960083 
	C1475.529785,676.852539 1469.565308,674.787354 1464.548950,671.439331 
	C1450.758179,662.234985 1450.860474,642.524414 1464.307007,632.266602 
	C1476.528442,622.943420 1499.434326,622.158142 1512.102051,630.769714 
	C1517.598022,634.505920 1521.513306,639.434937 1522.804565,646.958191 
	C1519.866211,646.958191 1517.418945,646.958191 1514.552734,646.956665 
z"/>
<path fill="#ECECEC" opacity="1.000000" stroke="none" 
	d="
M1269.723389,644.003052 
	C1269.723389,652.005127 1269.916748,659.511292 1269.644043,667.000549 
	C1269.501953,670.905273 1270.636353,672.236816 1274.686523,672.159180 
	C1287.347168,671.916199 1300.015259,672.061890 1312.680542,672.079346 
	C1314.304932,672.081543 1315.928955,672.215698 1317.823730,672.300903 
	C1317.823730,675.561584 1317.823730,678.490051 1317.823730,681.971008 
	C1302.125977,681.971008 1286.390137,681.971008 1270.067627,681.971008 
	C1269.934570,684.382446 1269.746338,686.289612 1269.738403,688.197571 
	C1269.704346,696.363220 1269.983887,704.540527 1269.621948,712.690247 
	C1269.418457,717.270813 1271.088501,718.292236 1275.357422,718.207581 
	C1288.184326,717.953186 1301.019287,718.116272 1313.851196,718.116577 
	C1315.502563,718.116638 1317.153931,718.116577 1319.247314,718.116577 
	C1319.247314,721.471558 1319.247314,724.504211 1319.247314,727.802002 
	C1299.379150,727.802002 1279.616211,727.802002 1259.394775,727.802002 
	C1259.288940,726.277710 1259.103638,724.848572 1259.102905,723.419373 
	C1259.085449,692.756165 1259.080566,662.093018 1259.103882,631.429810 
	C1259.105713,629.071777 1258.272705,626.184998 1262.397583,626.197571 
	C1281.206909,626.254944 1300.016602,626.222778 1319.257446,626.222778 
	C1319.257446,629.596680 1319.257446,632.633667 1319.257446,636.177368 
	C1302.902222,636.177368 1286.638672,636.177368 1269.723511,636.177368 
	C1269.723511,638.939514 1269.723511,641.219788 1269.723389,644.003052 
z"/>
<path fill="#ECECEC" opacity="1.000000" stroke="none" 
	d="
M864.580322,722.388794 
	C855.956604,716.064209 851.480225,707.741211 851.349792,697.506958 
	C851.063416,675.030884 851.230591,652.549194 851.011414,630.071838 
	C850.970093,625.832947 853.383789,626.119446 856.163208,626.206116 
	C858.915955,626.291992 861.806580,625.436096 861.763062,630.150818 
	C861.577209,650.298401 861.681885,670.448730 861.685852,690.598022 
	C861.689880,711.164673 872.712097,720.938354 893.310303,718.647644 
	C908.973022,716.905823 916.289307,708.747437 916.320740,692.845703 
	C916.360535,672.696472 916.331787,652.547119 916.332642,632.397827 
	C916.332703,630.597900 916.332703,628.798035 916.332703,626.609497 
	C919.877136,626.609497 922.934204,626.609497 926.613647,626.609497 
	C926.722351,628.079834 926.939331,629.659424 926.940918,631.239319 
	C926.961853,651.888184 927.046143,672.537598 926.921448,693.185730 
	C926.817383,710.423096 919.707458,721.574463 904.613281,726.726379 
	C890.949280,731.390259 877.434998,730.561523 864.580322,722.388794 
z"/>
<path fill="#F0F0F0" opacity="1.000000" stroke="none" 
	d="
M289.036865,636.125488 
	C285.743195,636.125488 282.944824,636.125488 279.812927,636.125488 
	C279.812927,648.126587 279.812927,659.698181 279.812927,672.091858 
	C281.430786,672.091858 283.006927,672.091919 284.583069,672.091858 
	C296.245514,672.091797 307.907959,672.091675 319.570404,672.091553 
	C328.562897,672.091431 328.562897,672.091431 327.369507,681.867920 
	C311.734009,681.867920 296.010437,681.867920 279.474945,681.867920 
	C279.474945,685.822876 279.474945,689.236450 279.474945,692.650024 
	C279.474976,699.480896 279.682037,706.320435 279.394623,713.139160 
	C279.231476,717.010803 280.294739,718.326660 284.363251,718.237854 
	C296.686218,717.968811 309.018860,718.139709 321.347717,718.140320 
	C330.213104,718.140747 330.528412,718.538940 328.748138,727.783203 
	C309.045013,727.783203 289.292419,727.783203 269.213623,727.783203 
	C269.213623,694.058167 269.213623,660.509888 269.213623,626.239014 
	C271.168427,626.239014 272.937225,626.239014 274.705994,626.239014 
	C290.367004,626.239075 306.027985,626.238403 321.688995,626.239563 
	C330.171173,626.240173 330.384766,626.517456 328.738007,636.125488 
	C315.747437,636.125488 302.639801,636.125488 289.036865,636.125488 
z"/>
<path fill="#EFEFEF" opacity="1.000000" stroke="none" 
	d="
M53.874046,638.308960 
	C52.224354,634.342346 50.723854,630.726685 49.176708,626.998657 
	C59.031609,624.973389 59.804775,625.377319 63.076523,633.102112 
	C73.123306,656.823120 83.202812,680.530212 93.284424,704.236450 
	C93.607010,704.994995 94.090996,705.684875 94.943291,707.190125 
	C96.344269,704.309387 97.620445,701.953247 98.663780,699.498169 
	C107.959526,677.624451 117.211723,655.732178 126.482079,633.847656 
	C130.049271,625.426636 130.055511,625.429260 140.837555,626.794617 
	C125.672363,662.312134 110.623795,697.556458 94.956871,734.249023 
	C80.908279,701.442444 67.465759,670.051208 53.874046,638.308960 
z"/>
<path fill="#F1F1F1" opacity="1.000000" stroke="none" 
	d="
M699.085632,696.000000 
	C699.085632,706.770508 699.085632,717.041016 699.085632,727.572754 
	C695.367737,727.572754 692.280212,727.572754 688.676514,727.572754 
	C688.676514,697.213501 688.676514,666.978394 688.676514,636.040894 
	C680.330566,636.040894 672.457764,636.040894 664.254944,636.040894 
	C664.254944,632.428772 664.254944,629.520264 664.254944,626.266357 
	C684.011963,626.266357 703.566345,626.266357 723.497559,626.266357 
	C723.497559,629.236694 723.497559,632.142029 723.497559,635.693115 
	C715.668945,635.693115 707.775635,635.693115 699.085632,635.693115 
	C699.085632,656.041504 699.085632,675.770752 699.085632,696.000000 
z"/>
<path fill="#020202" opacity="1.000000" stroke="none" 
	d="
M1392.153809,459.998322 
	C1392.153809,387.182617 1392.151733,314.866516 1392.155518,242.550385 
	C1392.156250,230.070541 1396.488159,225.750534 1409.007446,225.743011 
	C1426.336670,225.732605 1443.665771,225.725494 1460.994995,225.745102 
	C1472.046143,225.757599 1477.351440,230.860138 1477.357788,241.874939 
	C1477.402100,318.689972 1477.399414,395.505005 1477.358521,472.320068 
	C1477.353149,482.411652 1472.357910,487.198700 1462.182373,487.210602 
	C1443.520142,487.232483 1424.858032,487.237457 1406.195801,487.208862 
	C1396.992310,487.194763 1392.313599,482.604767 1392.171509,473.494110 
	C1392.103882,469.163025 1392.156006,464.830017 1392.153809,459.998322 
z"/>
<path fill="#050505" opacity="1.000000" stroke="none" 
	d="
M124.319817,404.000763 
	C124.321091,398.506378 124.129967,393.498993 124.459709,388.526184 
	C124.541496,387.292725 126.232315,385.225555 127.315498,385.135864 
	C157.350159,382.649567 180.303452,399.827179 185.773819,427.034546 
	C191.395798,454.995941 170.378891,483.547333 141.947281,486.586945 
	C137.654587,487.045868 133.301270,486.918182 128.998672,487.310425 
	C125.181564,487.658417 124.229202,486.056305 124.248055,482.416168 
	C124.382561,456.444885 124.319809,430.472534 124.319817,404.000763 
z"/>
<path fill="#080808" opacity="1.000000" stroke="none" 
	d="
M153.250854,293.257721 
	C145.022690,300.440125 135.826492,303.985718 124.749832,303.757111 
	C124.749832,277.839203 124.749832,252.125519 124.749832,226.328598 
	C135.028412,222.984192 152.861008,231.924576 160.107147,244.164597 
	C169.732117,260.422974 167.183258,279.532990 153.250854,293.257721 
z"/>
<path fill="#060606" opacity="1.000000" stroke="none" 
	d="
M447.028839,295.978638 
	C447.650482,293.762878 448.203674,291.947937 448.756897,290.132996 
	C449.075256,290.165070 449.393646,290.197144 449.712006,290.229218 
	C456.778168,327.318085 463.844360,364.406952 470.998352,401.956757 
	C454.121307,401.956757 437.779602,401.956757 420.718811,401.956757 
	C429.528564,366.512695 438.244476,331.446075 447.028839,295.978638 
z"/>
<path fill="#080808" opacity="1.000000" stroke="none" 
	d="
M1110.894775,671.901245 
	C1106.601685,676.087219 1101.696655,677.721252 1096.144043,677.699951 
	C1089.161011,677.673096 1082.177856,677.685974 1075.194946,677.651550 
	C1074.730957,677.649231 1074.268311,677.391602 1073.107300,677.043518 
	C1073.107300,670.940002 1073.106689,664.688354 1073.107544,658.436707 
	C1073.108398,652.284790 1073.198242,646.131104 1073.073120,639.981750 
	C1073.016113,637.178528 1074.060425,636.167358 1076.870972,636.240234 
	C1082.852539,636.395386 1088.841064,636.304932 1094.826660,636.289124 
	C1103.606689,636.265991 1111.101074,638.939087 1114.806763,647.496155 
	C1118.533203,656.101318 1117.581421,664.383545 1110.894775,671.901245 
z"/>
</svg>